<svg version="1" xmlns="http://www.w3.org/2000/svg" width="720" height="720" viewBox="0 0 540.000000 540.000000"><path d="M0 270v270h540V0H0v270zm168.2-91.9c8.1 1.7 15.1 5.4 20 10.7l4.5 4.8 3.9-3.3c10.1-8.5 23.6-12.7 40.9-12.7 19.3 0 31.4 4.5 43.2 15.9l6.3 6.1 5.7-5.8c6.5-6.6 13.6-10.6 24.3-13.9 9.7-3 28-3.3 37.9-.6 20.8 5.6 34.5 19.4 41.2 41.7 2.3 7.4 2.3 8.3 2.7 70.2.3 57.4.2 63.1-1.4 66.4-4.5 9.4-17.6 9.6-22.6.3-1.7-3.2-1.8-7.2-1.8-63.2 0-51.2-.2-60.8-1.6-66.1-2.8-11.1-8.7-18.6-17.9-22.8-6.8-3.1-24.1-3.3-32.5-.4-7.4 2.6-14.9 10.1-17.8 17.9-3.6 9.5-4.2 20.7-4.2 78.3 0 54.4 0 55.2-2.1 57.8-5.5 7-14.3 7.3-20.4.6-1.9-2.1-2-4-2.5-64.9-.6-69-.5-67.9-7.1-78.3-5.8-9-15.8-13.8-28.9-13.8-18.6 0-30.4 7.7-35.6 23.3-1.6 4.7-1.8 11.6-2.3 67.7-.6 59.9-.7 62.6-2.6 65.4-2 3-6.9 5.6-10.7 5.6-3.7 0-9-3.4-11-7.1-1.7-3.2-1.8-7.5-1.8-72.8 0-68 0-69.6-2-73.7-2.7-5.4-5.6-7.3-13.2-8.5-7.6-1.2-11.3-3.3-13.3-7.5-1.9-4.1-1.9-7.7 0-11.5 3.3-6.4 10.8-8.3 22.7-5.8z"/></svg>